# xmcd CD database file
#
# Track frame offsets:
#	150
#	22505
#	34990
#	58606
#	77568
#	107386
#	118868
#	139548
#	154483
#	173038
#	190309
#
# Disc length: 2831 seconds
#
# Revision: 3
# Processed by: cddbd v1.5.2PL0 Copyright (c) Steve Scherf et al.
# Submitted via: CDex 1.51
#
DISCID=840b0d0b
DTITLE=張學友 - 夢中的妳
DYEAR=1990
DGENRE=Pop
TTITLE0=夢中的妳
TTITLE1=千金一刻
TTITLE2=再度重遇你(可喜也可悲)
TTITLE3=地震
TTITLE4=李香蘭
TTITLE5=人間道
TTITLE6=期待
TTITLE7=年少無情
TTITLE8=不願再纏綿
TTITLE9=復活
TTITLE10=雨夜傾情
EXTD=YEAR: 1990
EXTT0=
EXTT1=
EXTT2=
EXTT3=
EXTT4=
EXTT5=
EXTT6=
EXTT7=
EXTT8=
EXTT9=
EXTT10=
PLAYORDER=
